<svg width="31" height="30" viewBox="0 0 31 30" fill="none" xmlns="http://www.w3.org/2000/svg">
<path fill-rule="evenodd" clip-rule="evenodd" d="M4.20143 0H9.74551C12.0415 0 13.902 1.868 13.902 4.17333V9.73986C13.902 12.0452 12.0415 13.9132 9.74551 13.9132H4.20143C1.90539 13.9132 0.0449219 12.0452 0.0449219 9.73986V4.17333C0.0449219 1.868 1.90539 0 4.20143 0ZM4.20143 16.0859H9.74551C12.0415 16.0859 13.902 17.9539 13.902 20.2593V25.8258C13.902 28.1296 12.0415 29.9991 9.74551 29.9991H4.20143C1.90539 29.9991 0.0449219 28.1296 0.0449219 25.8258V20.2593C0.0449219 17.9539 1.90539 16.0859 4.20143 16.0859ZM25.7865 16.0859H20.2424C17.9464 16.0859 16.0859 17.9539 16.0859 20.2593V25.8258C16.0859 28.1296 17.9464 29.9991 20.2424 29.9991H25.7865C28.0826 29.9991 29.943 28.1296 29.943 25.8258V20.2593C29.943 17.9539 28.0826 16.0859 25.7865 16.0859Z" fill="currentColor"/>
<path d="M20.3225 0H25.8666C28.1626 0 30.0231 1.868 30.0231 4.17333V9.73986C30.0231 12.0436 28.1626 13.9132 25.8666 13.9132H20.3225C18.0265 13.9132 16.166 12.0436 16.166 9.73986V4.17333C16.166 1.868 18.0265 0 20.3225 0Z" fill="currentColor"/>
</svg>
