<svg width="9" height="5" viewBox="0 0 9 5" fill="none" xmlns="http://www.w3.org/2000/svg">
<path d="M4.21963 4.88191L0.106957 0.638906C0.0383002 0.56811 0 0.474051 0 0.37624C0 0.278429 0.0383002 0.184372 0.106957 0.113575L0.111604 0.109006C0.144887 0.0745667 0.18495 0.047143 0.229355 0.0284033C0.27376 0.00966359 0.32158 0 0.369904 0C0.418229 0 0.466048 0.00966359 0.510453 0.0284033C0.554858 0.047143 0.594921 0.0745667 0.628205 0.109006L4.50077 4.10458L8.37179 0.109006C8.40508 0.0745667 8.44514 0.047143 8.48955 0.0284033C8.53395 0.00966359 8.58177 0 8.63009 0C8.67842 0 8.72624 0.00966359 8.77064 0.0284033C8.81505 0.047143 8.85511 0.0745667 8.8884 0.109006L8.89304 0.113575C8.9617 0.184372 9 0.278429 9 0.37624C9 0.474051 8.9617 0.56811 8.89304 0.638906L4.78037 4.88191C4.74421 4.91923 4.70071 4.94894 4.65251 4.96924C4.60432 4.98953 4.55243 5 4.5 5C4.44757 5 4.39568 4.98953 4.34749 4.96924C4.29929 4.94894 4.25579 4.91923 4.21963 4.88191Z" fill="black"/>
</svg>
