<svg width="31" height="30" viewBox="0 0 31 30" fill="none" xmlns="http://www.w3.org/2000/svg">
<path d="M22.1697 0H8.09396C2.98832 0 0.015625 2.67 0.015625 7.245V22.74C0.015625 27.39 2.98832 30 8.09396 30H22.1697C27.3577 30 30.2464 27.39 30.2464 22.74V7.245C30.2464 2.67 27.3577 0 22.1697 0Z" fill="currentColor"/>
<path fill-rule="evenodd" clip-rule="evenodd" d="M8.88603 6.97656V6.99156C8.23456 6.99156 7.70703 7.51656 7.70703 8.16156C7.70703 8.80656 8.23456 9.33156 8.88603 9.33156H13.404C14.0555 9.33156 14.5845 8.80656 14.5845 8.14506C14.5845 7.50156 14.0555 6.97656 13.404 6.97656H8.88603ZM20.7365 16.111H8.88603C8.23456 16.111 7.70703 15.586 7.70703 14.941C7.70703 14.296 8.23456 13.7695 8.88603 13.7695H20.7365C21.3865 13.7695 21.9155 14.296 21.9155 14.941C21.9155 15.586 21.3865 16.111 20.7365 16.111ZM20.7378 22.9665H8.8873C8.43384 23.0265 7.9955 22.8015 7.75365 22.4265C7.5118 22.0365 7.5118 21.5415 7.75365 21.1665C7.9955 20.7765 8.43384 20.5665 8.8873 20.6115H20.7378C21.3409 20.6715 21.7958 21.1815 21.7958 21.7965C21.7958 22.395 21.3409 22.9065 20.7378 22.9665Z" fill="white"/>
</svg>
