<svg width="34" height="21" viewBox="0 0 34 21" fill="none" xmlns="http://www.w3.org/2000/svg">
<path d="M7.83333 4.72451V0.891174H33.5V4.72451H7.83333ZM7.83333 12.3912V8.55784H33.5V12.3912H7.83333ZM7.83333 20.0578V16.2245H33.5V20.0578H7.83333ZM2.33333 4.72451C1.81389 4.72451 1.37847 4.54083 1.02708 4.17347C0.675694 3.8061 0.5 3.3509 0.5 2.80784C0.5 2.26479 0.675694 1.80958 1.02708 1.44222C1.37847 1.07485 1.81389 0.891174 2.33333 0.891174C2.85278 0.891174 3.28819 1.07485 3.63958 1.44222C3.99097 1.80958 4.16667 2.26479 4.16667 2.80784C4.16667 3.3509 3.99097 3.8061 3.63958 4.17347C3.28819 4.54083 2.85278 4.72451 2.33333 4.72451ZM2.33333 12.3912C1.81389 12.3912 1.37847 12.2075 1.02708 11.8401C0.675694 11.4728 0.5 11.0176 0.5 10.4745C0.5 9.93145 0.675694 9.47624 1.02708 9.10888C1.37847 8.74152 1.81389 8.55784 2.33333 8.55784C2.85278 8.55784 3.28819 8.74152 3.63958 9.10888C3.99097 9.47624 4.16667 9.93145 4.16667 10.4745C4.16667 11.0176 3.99097 11.4728 3.63958 11.8401C3.28819 12.2075 2.85278 12.3912 2.33333 12.3912ZM2.33333 20.0578C1.81389 20.0578 1.37847 19.8742 1.02708 19.5068C0.675694 19.1394 0.5 18.6842 0.5 18.1412C0.5 17.5981 0.675694 17.1429 1.02708 16.7755C1.37847 16.4082 1.81389 16.2245 2.33333 16.2245C2.85278 16.2245 3.28819 16.4082 3.63958 16.7755C3.99097 17.1429 4.16667 17.5981 4.16667 18.1412C4.16667 18.6842 3.99097 19.1394 3.63958 19.5068C3.28819 19.8742 2.85278 20.0578 2.33333 20.0578Z" fill="#1C1B1F"/>
</svg>
