<svg width="16" height="16" viewBox="0 0 16 16" fill="none" xmlns="http://www.w3.org/2000/svg">
<path fill-rule="evenodd" clip-rule="evenodd" d="M11.6641 9.89607C12.4396 8.68479 12.7402 7.22971 12.5083 5.81026C12.2764 4.39082 11.5283 3.10708 10.4076 2.20558C9.28695 1.30409 7.87274 0.848381 6.43657 0.925984C5.0004 1.00359 3.64352 1.60902 2.62652 2.62603C1.60951 3.64304 1.00407 4.99991 0.926472 6.43608C0.848869 7.87225 1.30457 9.28646 2.20607 10.4071C3.10757 11.5278 4.3913 12.2759 5.81075 12.5078C7.23019 12.7397 8.68528 12.4391 9.89656 11.6636L12.9499 14.7177C13.1844 14.9522 13.5024 15.084 13.8341 15.084C14.1657 15.084 14.4837 14.9522 14.7182 14.7177C14.9527 14.4832 15.0845 14.1652 15.0845 13.8336C15.0845 13.5019 14.9527 13.1839 14.7182 12.9494L11.6641 9.89607ZM6.75073 10.0836C5.86667 10.0836 5.01883 9.73238 4.39371 9.10726C3.76858 8.48214 3.4174 7.6343 3.4174 6.75024C3.4174 5.86619 3.76858 5.01834 4.39371 4.39322C5.01883 3.7681 5.86667 3.41691 6.75073 3.41691C7.63478 3.41691 8.48263 3.7681 9.10775 4.39322C9.73287 5.01834 10.0841 5.86619 10.0841 6.75024C10.0841 7.6343 9.73287 8.48214 9.10775 9.10726C8.48263 9.73238 7.63478 10.0836 6.75073 10.0836Z" fill="#343538"/>
</svg>
